<svg viewBox="0 0 24 24" fill="currentColor" xmlns="http://www.w3.org/2000/svg"><path d="M3.51472 2.10051L22.6066 21.1924L21.1924 22.6066L19.1782 20.5924C18.4424 20.8556 17.6482 21 16.8203 21H6.5C3.46243 21 1 18.5376 1 15.5C1 13.1424 2.52938 11.1365 4.66248 10.3883C4.5562 10.0006 4.5 9.5938 4.5 9.17493C4.5 8.3753 4.71969 7.62361 5.10352 6.98066L2.10051 3.97766L3.51472 2.10051ZM6.56066 8.4378C6.52345 8.6789 6.5 8.92442 6.5 9.17493C6.5 9.5765 6.56852 9.9605 6.69474 10.3165L7.15111 11.603L5.84446 12.0098C4.16845 12.5319 3 14.0739 3 15.5C3 17.433 4.567 19 6.5 19H16.8203C17.0406 19 17.2573 18.9838 17.4693 18.9525L6.56066 8.4378ZM12 2C15.3137 2 18 4.68629 18 8C18 8.05 17.9998 8.09994 17.9993 8.14981C20.2689 8.71817 22 10.7083 22 13.1C22 14.3793 21.5136 15.5451 20.7149 16.4254L19.2832 14.9937C19.7412 14.4842 20 13.8223 20 13.1C20 11.4 18.6 10 17 10H16V8C16 5.79086 14.2091 4 12 4C10.7943 4 9.72468 4.5456 9.00448 5.39563L7.57773 3.9689C8.61407 2.75789 10.2157 2 12 2Z"/></svg>
