<svg xmlns="http://www.w3.org/2000/svg" viewBox="0 0 24 24" fill="currentColor"><path d="M4 18h5.5v1a3.5 3.5 0 0 1-3.5 3.5h-.5A3.5 3.5 0 0 1 2 19v-1h2zm10-2h5.5v1a3.5 3.5 0 0 1-3.5 3.5h-.5A3.5 3.5 0 0 1 12 17v-1h2zM8.5 1a4.5 4.5 0 0 1 4.473 4.012L13.5 8.5c.167 1.667-.333 3.167-1.5 4.5H4c-1.167-1.333-1.667-2.833-1.5-4.5l.527-3.488A4.5 4.5 0 0 1 8.5 1zm9 4a4.5 4.5 0 0 1 4.473 4.012L22.5 12.5c.167 1.667-.333 3.167-1.5 4.5H13c-1.167-1.333-1.667-2.833-1.5-4.5l.527-3.488A4.5 4.5 0 0 1 17.5 5z"/></svg>
